HIERARCHY
ROOT Hips
{
	OFFSET 0.000000 0.000000 0.000000 
	CHANNELS 6 Xposition Yposition Zposition Yrotation Zrotation Xrotation 
	JOINT Lumbar
	{
		OFFSET 0.000000 0.000000 0.000000 
		CHANNELS 3 Zrotation Xrotation Yrotation
		JOINT Neck
		{
			OFFSET 0.000000 0.445665 0.000000 
			CHANNELS 3 Zrotation Xrotation Yrotation
			End Site
			{
				OFFSET 0.000000 0.227535 0.000000 
			}
		}
		JOINT RightShoulder
		{
			OFFSET 0.019635 0.377685 0.194865 
			CHANNELS 3 Zrotation Xrotation Yrotation
			JOINT RightElbow
			{
				OFFSET 0.000000 -0.243375 0.000000 
				CHANNELS 2 Zrotation Yrotation
				JOINT RightWrist
				{
					OFFSET 0.000000 -0.264825 0.000000 
					CHANNELS 2 Zrotation Xrotation
					End Site
					{
						OFFSET 0.006600 -0.176220 0.000990 
					}
				}
			}
		}
		JOINT LeftShoulder
		{
			OFFSET 0.019635 0.377685 -0.194865 
			CHANNELS 3 Zrotation Xrotation Yrotation
			JOINT LeftElbow
			{
				OFFSET 0.000000 -0.243375 0.000000 
				CHANNELS 2 Zrotation Yrotation
				JOINT LeftWrist
				{
					OFFSET 0.000000 -0.264825 0.000000 
					CHANNELS 2 Zrotation Xrotation
					End Site
					{
						OFFSET 0.006600 -0.176220 -0.000990 
					}
				}
			}
		}
	}
	JOINT RightHip
	{
		OFFSET 0.052140 -0.069960 0.075570 
		CHANNELS 3 Zrotation Xrotation Yrotation
		JOINT RightKnee
		{
			OFFSET 0.000000 -0.402270 0.000000 
			CHANNELS 1 Zrotation
			JOINT RightAnkle
			{
				OFFSET 0.000000 -0.404085 0.000000 
				CHANNELS 3 Zrotation Xrotation Yrotation
				End Site
				{
					OFFSET 0.204105 -0.089430 0.008415 
				}
			}
		}
	}
	JOINT LeftHip
	{
		OFFSET 0.052140 -0.069960 -0.075570 
		CHANNELS 3 Zrotation Xrotation Yrotation
		JOINT LeftKnee
		{
			OFFSET 0.000000 -0.402270 0.000000 
			CHANNELS 1 Zrotation
			JOINT LeftAnkle
			{
				OFFSET 0.000000 -0.404085 0.000000 
				CHANNELS 3 Zrotation Xrotation Yrotation
				End Site
				{
					OFFSET 0.204105 -0.089430 -0.008415 
				}
			}
		}
	}
}
MOTION
Frames: 14
Frame Time: 0.02
-0.00405 -0.00044 0.00663 -9.51475 -22.24004 -0.25034 47.90359 2.2736 -9.54651 -13.18371 -6.80867 -0.3217 -24.15417 -9.94851 -8.72613 36.35138 88.31058 4.7986 -0.22141 -31.07725 20.52906 -18.4017 43.33202 -57.14692 -2.65857 7.46456 31.03622 -2.18069 -12.76656 -21.08008 -7.6457 -3.33147 -2.40635 37.63524 5.93178 -2.06364 -26.96107 -9.71167 5.53574 3.80328
-0.00246 -0.00044 0.00466 -9.87674 -22.19159 -0.18404 47.83699 2.40546 -9.23836 -13.29885 -6.67233 -0.32298 -24.16733 -10.17686 -8.61332 36.18344 88.37495 4.87994 -0.23017 -31.27717 19.81385 -16.93784 43.11637 -62.55776 -0.80227 6.48583 30.93362 -2.26024 -12.0488 -21.01456 -7.65736 -3.36184 -2.42699 37.4286 5.87553 -1.46174 -26.96736 -9.66799 5.52964 3.79483
-0.00088 -0.00043 0.00269 -10.23816 -22.14341 -0.11786 47.77053 2.53709 -8.93136 -13.41373 -6.53623 -0.32425 -24.18006 -10.4049 -8.50075 36.01609 88.43904 4.96101 -0.23889 -31.47655 19.10063 -15.47882 42.90137 -67.94819 1.04733 5.5107 30.83151 -2.33974 -11.3322 -20.94932 -7.66906 -3.39219 -2.4476 37.22245 5.81918 -0.86127 -26.9736 -9.6244 5.52356 3.78642
0.00071 -0.00043 0.00073 -10.59914 -22.09513 -0.05174 47.70415 2.66858 -8.62416 -13.52854 -6.40028 -0.32553 -24.19314 -10.63262 -8.38828 35.84868 88.5032 5.04209 -0.24763 -31.67588 18.38756 -14.01949 42.68637 -73.34164 2.89773 4.5351 30.72921 -2.41906 -10.61644 -20.88394 -7.68069 -3.42248 -2.46818 37.01642 5.76306 -0.26114 -26.97987 -9.58085 5.51748 3.778
0.00229 -0.00043 -0.00124 -10.96044 -22.04653 0.01444 47.63759 2.80019 -8.31583 -13.64357 -6.26416 -0.32681 -24.20676 -10.86047 -8.27558 35.68068 88.56767 5.12346 -0.25641 -31.87569 17.67263 -12.5553 42.47077 -78.75721 4.75522 3.5556 30.62647 -2.49837 -9.90002 -20.81845 -7.69227 -3.45277 -2.48877 36.80994 5.70716 0.34022 -26.9862 -9.53721 5.51136 3.76955
0.00388 -0.00042 -0.00322 -11.32209 -21.99923 0.08062 47.57134 2.93185 -8.01169 -13.75813 -6.12815 -0.32808 -24.21757 -11.08887 -8.16329 35.51468 88.63096 5.2039 -0.26501 -32.07411 16.9631 -11.10727 42.25707 -84.0947 6.58816 2.58969 30.52574 -2.57828 -9.18318 -20.75383 -7.70421 -3.48325 -2.50944 36.60449 5.64987 0.93878 -26.99225 -9.49371 5.50537 3.76119
0.00546 -0.00042 -0.00517 -11.68271 -21.9494 0.14676 47.50467 3.06333 -7.69921 -13.8735 -5.99204 -0.32935 -24.23415 -11.31597 -8.05037 35.34486 88.69654 5.28609 -0.27396 -32.2752 16.24335 -9.62819 42.03969 -89.58223 8.46825 1.59772 30.42082 -2.65684 -8.46771 -20.68702 -7.71539 -3.51332 -2.52993 36.39724 5.59541 1.54235 -26.99886 -9.45001 5.49914 3.75267
0.00705 -0.00042 -0.00714 -12.04413 -21.90182 0.21289 47.43814 3.19485 -7.39489 -13.98814 -5.85605 -0.33064 -24.24516 -11.54419 -7.93788 35.17851 88.76006 5.36672 -0.28261 -32.47366 15.53329 -8.17795 41.82587 -94.93354 10.30531 0.62939 30.3202 -2.73676 -7.75145 -20.62319 -7.72729 -3.54372 -2.55056 36.19157 5.53837 2.14127 -27.00497 -9.40644 5.49311 3.74429
0.00864 -0.00041 -0.00914 -12.40736 -21.85735 0.27923 47.37272 3.327 -7.09859 -14.10189 -5.72002 -0.3319 -24.2503 -11.77427 -7.82644 35.01655 88.82084 5.44523 -0.2908 -32.66968 14.83365 -6.76158 41.61566 -100.11143 12.08856 -0.3088 30.22311 -2.81795 -7.03183 -20.55918 -7.74004 -3.57474 -2.57149 35.98805 5.47799 2.73492 -27.01039 -9.36323 5.4874 3.73613
0.0102 -0.00042 -0.011 -12.76271 -21.79607 0.34506 47.30374 3.4573 -6.75028 -14.22078 -5.58366 -0.33317 -24.29206 -11.99511 -7.71056 34.8298 88.89672 5.53533 -0.30134 -32.88209 14.06975 -5.14614 41.38241 -106.26642 14.17782 -1.41665 30.10052 -2.89065 -6.32429 -20.48472 -7.74781 -3.60286 -2.5911 35.7728 5.43628 3.36016 -27.01953 -9.31856 5.48008 3.72682
0.01183 -0.0004 -0.01315 -13.133 -21.76954 0.41148 47.2405 3.59033 -6.51544 -14.32881 -5.44837 -0.33452 -24.25476 -12.23446 -7.60303 34.69504 88.94117 5.60138 -0.30715 -33.05838 13.44425 -3.95348 41.19925 -110.37315 15.6237 -2.16895 30.03503 -2.98197 -5.59608 -20.43962 -7.7661 -3.63664 -2.6132 35.58189 5.35557 3.91783 -27.02097 -9.27659 5.47603 3.71985
0.01371 -0.0003 -0.01616 -13.55852 -21.8453 0.48358 47.20752 3.7405 -6.56443 -14.40712 -5.31296 -0.3353 -24.01375 -12.53297 -7.52674 34.70695 88.89538 5.59771 -0.29782 -33.14663 13.17978 -3.90945 41.14251 -108.6944 15.26871 -1.91623 30.10302 -3.11955 -4.77064 -20.41886 -7.81369 -3.68996 -2.64447 35.46186 5.1638 4.29615 -26.99974 -9.2454 5.48208 3.72013
0.01565 -0.00018 -0.01945 -13.99618 -21.95478 0.5554 47.17759 3.89147 -6.73254 -14.47466 -5.17929 -0.3363 -23.69145 -12.84813 -7.45715 34.77045 88.81894 5.57075 -0.28412 -33.19619 13.0583 -4.29208 41.13792 -104.98911 14.27452 -1.31178 30.23421 -3.27685 -3.93204 -20.44008 -7.8718 -3.74814 -2.67776 35.36567 4.93382 4.60543 -26.971 -9.21635 5.4912 3.72259
0.01754 -8e-05 -0.02259 -14.41929 -22.0442 0.62487 47.13679 4.03596 -6.86403 -14.54691 -5.04663 -0.3377 -23.39701 -13.15071 -7.37924 34.80756 88.75895 5.55669 -0.27384 -33.2567 12.88289 -4.48702 41.11693 -102.31931 13.59552 -0.88763 30.34963 -3.42809 -3.12576 -20.4762 -7.92477 -3.80158 -2.70864 35.25567 4.72367 4.94243 -26.94678 -9.18409 5.49819 3.72352
